# xmcd
#
# Track frame offsets:
#	150
#	12364
#	25053
#	37129
#	49444
#	61729
#	73308
#	88149
#	101637
#	114655
#
# Disc length: 1710 seconds
#
# Revision: 1
# Processed by: cddbd v1.5.1PL0 Copyright (c) Steve Scherf et al.
# Submitted via: audiograbber 1.83.01
#
DISCID=8d06ac0a
DTITLE=Various Artist - Dirty Blues 3
DYEAR=1900
DGENRE=Blues
TTITLE0=Blind Boy Fuller - I Don't Want No Skinny Woman
TTITLE1=Georgia White - Get 'Em From The Peanut Man
TTITLE2=Jazz Gillum - Stavin' Chain
TTITLE3=Mae Carter - Gas Man Blues
TTITLE4=Kansas Joe and Memphis Minnie - What's That Smells Like Fish?
TTITLE5=Lil Johnson - You Stole My Cherry
TTITLE6=Lonnie Johnson - He's A Jelly Roll Baker
TTITLE7=Washboard Sam - Diggin' My Potatoes
TTITLE8=Georgia White - I'll Keep Sittin' On It (If I Can't Sell It)
TTITLE9=Sonny Boy Williamson - Coal And Iceman Blues
EXTD=
EXTT0=
EXTT1=
EXTT2=
EXTT3=
EXTT4=
EXTT5=
EXTT6=
EXTT7=
EXTT8=
EXTT9=
PLAYORDER=
